<svg id="Capa_1" data-name="Capa 1" xmlns="http://www.w3.org/2000/svg" viewBox="0 0 1080 1080"><defs><style>.cls-1{fill:none;stroke:#042330;stroke-miterlimit:10;stroke-width:5px;}</style></defs><path class="cls-1" d="M128,443.67s-3.86-6.75,1.93-8c0,0-8.68-20.89,8.68-48.85,0,0,14.46-22.83,30.85-26.36,0,0-.64-9,8.36-7.39,0,0,15.75-44.36,40.5-54,0,0,24.11-13.72,41.68-14.58,0,0,21.43-37.28,50.14-42,0,0,26.57-7.28,46.29-2.57l2.57.22s2.79-10.25,10.07-1.8c0,0,26-31.2,67.18-30.88,0,0,19.93,0,25.39,3.53,0,0,4-9,10.93-4.66l1.61,1.77s18.53-9.11,44.68-7.18c0,0,31.5,4.45,38.73,12.32,0,0,5.14-5.78,9.8,0l.81,2.9s17.27-3.38,25.07.48l13.58,6.35,7.07-6s6.43-1.53,7.23,3.94c0,0,25.64-7.39,59.49,6.75,0,0,32.57,16.28,39.43,37.93,0,0,7.23-.48,6.75,8.11,0,0,18.64-9.72,33.91.89,0,0,23.14,13.5,22.18,37.28l-.64,6.11s21.8-3.75,31.87,11.46c0,0,14.15,14.58,11.15,28.93l-3,12,.85,1.93s22.07,9,28.93,23.79c0,0,9.43,19.93,6.43,32.78l.59,1.61s4.66-1.61,4.34,5.46l11.36,1.72s23.35,13.93,28.92,31.71c0,0,12.86,31.72,6.43,43.72,0,0,5.42,4.5,1.8,10.07,0,0,26.7,25.61,25.74,56.46,0,0,.32,34.4-15.75,55l-15.22,17.89-.53,1.71s4.18,2.9-2.36,7.83c0,0,4.39,12.21,3.54,24,0,0-3,22.71-5.57,23.14a7,7,0,0,1,2.62,7.07s-19.77,31.18-36.48,36.64c0,0-14.31,13.34-55,11.57,0,0-20.73-1-38.41-10.92,0,0-10.44,5.78,2.74,35.67l20.09,39.54s5.78-.64,8.83,13.66c0,0-.16,23.14-5.3,29.25,0,0-12.7,15.91-22.34,2.09,0,0-6.86-9-8.36-16.5,0,0-12.42-26.14-22.28-34.93,0,0-13.29-14.36-27.86-22.71a26.67,26.67,0,0,1-11.57-22.72l.21-10.93s.43-4.92,4.08-3a30.42,30.42,0,0,0-12.25-5.81s-28-9.72-58.09,11c0,0-5.63,12.38-13,0l-22.5,11.73s-6.11,7.88-10.13,3.86c0,0-21.37,10.29-31,9.86-1.72-.43-55.08,5.78-91.93-7.29,0,0-52.4-17.68-62-59.14l-3.53-17S344,762.2,270.07,749c0,0-39.53-7.4-44.36-11.58,0,0-3.42,4.08-8,1.72l-10.93-9.43S124.14,693.1,93.29,607.6c0,0-19.93-55.93,6.42-131.79C99.71,475.81,114.29,449.45,128,443.67Z"/></svg>